<svg width="104" height="604" viewBox="0 0 104 604" fill="none" xmlns="http://www.w3.org/2000/svg">
<path d="M18.2051 603.207C17.8951 599.457 17.4651 595.707 17.3151 591.957C16.4651 570.977 22.8651 551.567 32.8351 533.867C50.5751 502.377 64.8751 469.317 79.3451 436.317C86.9851 418.897 92.0051 400.607 91.5351 381.227C91.2051 367.457 88.9751 354.007 83.5651 341.357C73.5251 317.847 62.9451 294.557 52.7751 271.097C48.6251 261.517 45.4351 251.487 40.8851 242.117C37.2151 234.547 31.4951 227.987 27.8651 220.407C21.6451 207.427 14.8051 194.437 11.0551 180.667C5.95515 161.987 3.17515 142.637 0.215147 123.447C-0.604853 118.147 1.09515 112.297 2.35515 106.867C3.26515 102.937 6.19515 100.267 10.5951 100.147C14.9051 100.037 17.9951 102.347 19.5251 106.097C20.7451 109.077 21.7151 112.537 21.4751 115.677C20.5951 127.087 19.1451 138.457 17.9451 149.847C15.5651 172.597 18.6951 194.357 30.1351 214.397C32.0551 217.757 35.4551 220.247 38.1751 223.147C38.6951 219.237 39.8051 215.307 39.6551 211.427C38.8551 191.347 36.7851 171.347 39.9051 151.207C41.7851 139.097 43.2951 126.657 42.6951 114.477C41.7151 94.5266 38.1751 74.8466 28.4951 56.9066C28.1051 56.1766 27.7151 55.4466 27.3151 54.7066C16.5551 34.7166 21.8951 15.2166 41.3651 3.41659C54.4151 -4.4934 70.3951 1.8166 73.2751 17.3366C75.0451 26.9166 74.5051 37.2266 73.3151 47.0066C68.9151 83.0866 59.2851 118.067 50.0351 153.107C49.0251 156.937 48.6951 160.967 48.3551 164.937C48.2451 166.227 49.0851 167.597 49.4851 168.927C50.8051 168.397 52.4851 168.227 53.3651 167.277C57.0851 163.277 60.7952 159.227 64.0751 154.857C70.2451 146.637 76.5551 138.477 81.9951 129.777C88.2252 119.817 90.4151 109.017 85.9951 97.3866C84.8051 94.2666 84.6351 90.5166 84.8851 87.1266C85.3652 80.7666 89.1051 77.1666 94.0651 77.4366C99.4151 77.7266 103.435 81.7166 103.255 87.8166C103.095 93.0766 102.505 98.5566 100.805 103.477C95.8152 117.957 89.5651 131.977 80.4951 144.367C72.7751 154.917 64.4851 165.077 56.0751 175.077C46.9151 185.967 45.8951 198.627 46.3151 212.107C47.1551 239.327 55.0651 264.297 67.7151 288.157C78.4651 308.437 87.6251 329.557 93.3851 351.827C99.8051 376.647 99.0751 401.657 94.5852 426.977C88.1852 463.077 76.3351 496.937 58.8251 529.027C46.3451 551.897 34.7252 575.257 22.7051 598.387C21.8051 600.117 20.7651 601.757 19.7851 603.447C19.2651 603.367 18.7351 603.297 18.2151 603.217L18.2051 603.207Z" fill="#9A53CE"/>
</svg>
