<svg width="441" height="301" viewBox="0 0 441 301" fill="none" xmlns="http://www.w3.org/2000/svg">
<path d="M432.63 299.75L180.17 137.68L196.35 111.08L440.53 288.56L432.63 299.75Z" fill="url(#paint0_linear_383_496)"/>
<path d="M3 3L114.8 169.64L199.77 50.69L3 3Z" fill="url(#paint1_linear_383_496)"/>
<path d="M430.38 298.34L180.17 137.68L196.35 111.08L438.13 286.81" fill="url(#paint2_linear_383_496)"/>
<path d="M430.38 298.34L180.17 137.68L196.35 111.08L438.13 286.81" stroke="black" stroke-width="5" stroke-linecap="round" stroke-linejoin="round"/>
<path d="M207.34 165.28C223.516 165.28 236.63 152.166 236.63 135.99C236.63 119.814 223.516 106.7 207.34 106.7C191.164 106.7 178.05 119.814 178.05 135.99C178.05 152.166 191.164 165.28 207.34 165.28Z" fill="url(#paint3_radial_383_496)" stroke="black" stroke-width="5" stroke-linecap="round" stroke-linejoin="round"/>
<path d="M229.96 154.6C232.31 150.39 233.65 145.54 233.65 140.37C233.65 124.19 220.53 111.08 204.36 111.08C195.26 111.08 187.13 115.23 181.76 121.74C186.75 112.76 196.34 106.7 207.34 106.7C223.52 106.7 236.63 119.81 236.63 135.99C236.63 143.06 234.13 149.54 229.96 154.6Z" fill="white"/>
<path d="M207.34 165.28C223.516 165.28 236.63 152.166 236.63 135.99C236.63 119.814 223.516 106.7 207.34 106.7C191.164 106.7 178.05 119.814 178.05 135.99C178.05 152.166 191.164 165.28 207.34 165.28Z" stroke="black" stroke-width="5" stroke-linecap="round" stroke-linejoin="round"/>
<path d="M207.3 120.08C208.979 120.08 210.34 119.202 210.34 118.12C210.34 117.037 208.979 116.16 207.3 116.16C205.621 116.16 204.26 117.037 204.26 118.12C204.26 119.202 205.621 120.08 207.3 120.08Z" fill="white"/>
<path d="M222.24 128.77C221.32 129.76 219.03 127.74 216.27 125.18C213.51 122.62 211.33 120.49 212.24 119.5C213.15 118.51 216.83 119.04 219.59 121.6C222.35 124.16 223.15 127.78 222.23 128.77H222.24Z" fill="white"/>
<path d="M79.79 21.6101L64.32 94.4001L52.78 77.1901L65.33 18.1001L79.79 21.6101Z" fill="#55FCFF"/>
<path d="M116.16 30.4199L93.36 137.68L74.34 109.34L92.34 24.6499L116.16 30.4199Z" fill="#55FCFF"/>
<path d="M199.77 50.68L191.52 62.23L7.81 10.18L3 3L199.77 50.68Z" fill="white"/>
<path d="M3 3L114.8 169.64L199.77 50.69L3 3Z" stroke="black" stroke-width="5" stroke-linecap="round" stroke-linejoin="round"/>
<path d="M204.35 165.28C215.12 162.75 224.38 158.84 231.32 152.8C234.7 144.58 235.36 135.14 234.51 125.03C242.37 133.03 249.11 140.68 251.54 146.95C257.99 146.27 264.47 145 270.99 143.15C270.09 150.41 266.84 156.62 261.6 161.93C266.26 169.08 269.83 176.1 272.11 182.95C264.7 183.42 255.67 182.2 245.95 180.27C241.83 187.32 234.77 191.63 226.5 194.82C228.52 187.81 229.39 181.11 227.59 175.13C219.78 173.56 212.05 170.07 204.37 165.29H204.35V165.28Z" fill="url(#paint4_linear_383_496)" stroke="black" stroke-width="5" stroke-linecap="round" stroke-linejoin="round"/>
<path d="M266.04 156.49C266.69 154.56 267.15 152.55 267.41 150.45C260.89 152.3 254.41 153.57 247.96 154.25C245.94 149.03 240.93 142.85 234.76 136.3C234.95 132.66 234.84 128.89 234.51 125.03C242.38 133.03 249.12 140.68 251.54 146.94C257.99 146.26 264.47 144.99 270.99 143.14C270.38 148.06 268.7 152.5 266.04 156.49Z" fill="white"/>
<path d="M272.11 182.94C270.07 183.07 267.91 183.07 265.65 182.97C263.61 178.45 259.53 170.95 256.51 166.31C258.28 164.51 260.52 162.5 261.82 160.5C265.98 167.1 270 176.61 272.11 182.95V182.94Z" fill="white"/>
<path d="M229.69 154.15C229.18 156.2 228.54 158.19 227.75 160.11C223.26 164.02 217.79 167.04 211.57 169.36C209.16 168.14 206.76 166.77 204.36 165.28C214.3 162.94 222.96 159.43 229.69 154.15Z" fill="white"/>
<path d="M204.35 165.28C215.12 162.75 224.38 158.84 231.32 152.8C234.7 144.58 235.36 135.14 234.51 125.03C242.37 133.03 249.11 140.68 251.54 146.95C257.99 146.27 264.47 145 270.99 143.15C270.09 150.41 266.84 156.62 261.6 161.93C266.26 169.08 269.83 176.1 272.11 182.95C264.7 183.42 255.67 182.2 245.95 180.27C241.83 187.32 234.77 191.63 226.5 194.82C228.52 187.81 229.39 181.11 227.59 175.13C219.78 173.56 212.05 170.07 204.37 165.29H204.35V165.28Z" stroke="black" stroke-width="5" stroke-linecap="round" stroke-linejoin="round"/>
<path d="M180.17 137.68L149.34 121.29L170.21 92.0801L196.35 111.08C191.7 120.33 187.6 128.08 180.17 137.68Z" fill="url(#paint5_linear_383_496)" stroke="black" stroke-width="5" stroke-linecap="round" stroke-linejoin="round"/>
<path d="M196.35 111.08C195.58 112.62 194.42 115.85 193.66 117.32L168.41 94.6101L170.21 92.0901L196.35 111.09V111.08Z" fill="white"/>
<path d="M180.17 137.68L149.34 121.29L170.21 92.0801L196.35 111.08C191.7 120.33 187.6 128.08 180.17 137.68Z" stroke="black" stroke-width="5" stroke-linecap="round" stroke-linejoin="round"/>
<defs>
<linearGradient id="paint0_linear_383_496" x1="285.42" y1="188.31" x2="431.75" y2="274.42" gradientUnits="userSpaceOnUse">
<stop stop-color="#C3633D"/>
<stop offset="1" stop-color="#EB7A40"/>
</linearGradient>
<linearGradient id="paint1_linear_383_496" x1="41.89" y1="105.61" x2="117.62" y2="19.74" gradientUnits="userSpaceOnUse">
<stop stop-color="#038183"/>
<stop offset="0.05" stop-color="#039294"/>
<stop offset="0.15" stop-color="#04B1B3"/>
<stop offset="0.27" stop-color="#04CACD"/>
<stop offset="0.39" stop-color="#05DEE2"/>
<stop offset="0.53" stop-color="#05ECF0"/>
<stop offset="0.71" stop-color="#05F4F8"/>
<stop offset="1" stop-color="#06F7FB"/>
</linearGradient>
<linearGradient id="paint2_linear_383_496" x1="284.45" y1="187.7" x2="429.35" y2="272.97" gradientUnits="userSpaceOnUse">
<stop stop-color="#C3633D"/>
<stop offset="1" stop-color="#EB7A40"/>
</linearGradient>
<radialGradient id="paint3_radial_383_496" cx="0" cy="0" r="1" gradientUnits="userSpaceOnUse" gradientTransform="translate(210.8 122.69) scale(42.13)">
<stop stop-color="#F836D8"/>
<stop offset="0.29" stop-color="#F535D5"/>
<stop offset="0.46" stop-color="#ED31CE"/>
<stop offset="0.6" stop-color="#DF2CC1"/>
<stop offset="0.72" stop-color="#CA24AF"/>
<stop offset="0.84" stop-color="#B01A98"/>
<stop offset="0.94" stop-color="#910E7C"/>
<stop offset="1" stop-color="#7B0668"/>
</radialGradient>
<linearGradient id="paint4_linear_383_496" x1="230.46" y1="186.13" x2="247.91" y2="159.15" gradientUnits="userSpaceOnUse">
<stop stop-color="#6B4200"/>
<stop offset="0.02" stop-color="#6F4501"/>
<stop offset="0.16" stop-color="#96640A"/>
<stop offset="0.31" stop-color="#B67D12"/>
<stop offset="0.47" stop-color="#CF9118"/>
<stop offset="0.63" stop-color="#E19F1C"/>
<stop offset="0.8" stop-color="#EBA71F"/>
<stop offset="1" stop-color="#EFAA20"/>
</linearGradient>
<linearGradient id="paint5_linear_383_496" x1="162.06" y1="125.47" x2="189.79" y2="103.11" gradientUnits="userSpaceOnUse">
<stop stop-color="#000E56"/>
<stop offset="0.11" stop-color="#001671"/>
<stop offset="0.27" stop-color="#002190"/>
<stop offset="0.43" stop-color="#0029A9"/>
<stop offset="0.6" stop-color="#002FBB"/>
<stop offset="0.79" stop-color="#0032C5"/>
<stop offset="1" stop-color="#0034C9"/>
</linearGradient>
</defs>
</svg>
