<svg width="228" height="543" viewBox="0 0 228 543" fill="none" xmlns="http://www.w3.org/2000/svg">
<path d="M82.1871 116.75C78.0171 110.09 74.2071 104.33 70.7271 98.39C64.2971 87.42 61.2071 75.86 61.5671 62.79C62.1071 43.26 54.7871 26.42 39.7571 13.47C32.4871 7.2 24.1371 8.81 19.3171 17.13C14.7871 24.96 12.8671 26.18 7.24706 24.82C2.65706 23.7 -0.372942 19.51 0.0370576 14.82C0.667058 7.5 7.77706 0 15.1471 0C26.7671 0.01 37.3671 3 45.3671 12.42C52.8771 21.27 58.8971 30.9 62.3671 42.05C62.7971 43.44 63.4871 44.75 64.0471 46.08C67.4071 43.62 70.2471 40.81 73.6571 39.19C80.6971 35.85 89.4071 38.41 93.6071 44.59C96.1071 48.27 96.8971 52.34 94.6371 56.35C92.3471 60.41 88.5671 60.36 84.5671 59.29C82.9771 58.86 81.2971 58.7 79.6571 58.54C71.1971 57.74 65.2071 63.31 65.7071 71.78C66.3571 82.71 71.5271 92 78.0171 100.2C84.5671 108.47 92.4271 115.7 99.7171 123.38C104.727 128.66 109.767 133.91 114.707 139.24C115.577 140.18 116.037 141.5 116.687 142.64C117.247 142.31 117.807 141.98 118.357 141.64C118.357 137.26 117.847 132.82 118.467 128.53C119.687 119.97 125.327 114.32 132.737 113.34C137.827 112.67 142.507 114.91 143.897 118.87C145.657 123.89 142.397 126.62 138.937 129.14C137.737 130.01 136.397 130.72 135.037 131.32C124.717 135.89 121.727 147.72 129.487 155.96C153.477 181.42 172.887 210.53 194.807 237.64C201.167 245.51 208.317 252.73 214.597 260.65C221.507 269.36 226.707 279.28 227.327 290.49C227.767 298.49 227.087 306.88 225.137 314.64C218.827 339.79 212.247 364.9 204.747 389.71C193.467 427.04 178.737 462.97 159.037 496.78C151.347 509.97 144.527 523.68 137.577 537.29C135.747 540.87 134.997 542.21 134.997 542.21L107.607 542.13C107.607 542.13 108.257 538.42 109.797 532.24C111.057 527.17 113.427 522.27 115.967 517.65C125.417 500.47 135.947 483.84 144.597 466.27C159.787 435.42 174.887 404.45 188.077 372.72C196.387 352.73 201.767 331.43 207.307 310.41C212.727 289.87 207.317 270.92 195.507 253.64C185.577 239.11 175.487 224.68 165.717 210.04C150.977 187.95 132.927 168.69 114.877 149.4C111.137 145.4 107.577 141.21 103.657 137.39C97.9671 131.83 91.257 127.89 83.3771 126.37C75.6571 124.89 72.147 127.82 71.7671 135.62C71.5871 139.43 71.5171 143.27 70.8871 147.02C70.1871 151.22 67.3371 153.59 63.1471 154.4C57.1571 155.56 49.4371 152.4 46.1271 147.33C42.6171 141.96 43.0871 137.11 47.5771 130.78C54.5671 120.92 64.9571 118.07 76.0971 116.77C77.8771 116.56 79.6971 116.74 82.2071 116.74L82.1871 116.75Z" fill="#498E97"/>
</svg>
