<svg width="379" height="325" viewBox="0 0 379 325" fill="none" xmlns="http://www.w3.org/2000/svg">
<path d="M376.01 17.46L236.11 131.2L221.2 117.04L364.45 3" fill="url(#paint0_linear_383_620)"/>
<path d="M376.01 17.46L236.11 131.2L221.2 117.04L364.45 3" stroke="black" stroke-width="5" stroke-linecap="round" stroke-linejoin="round"/>
<path d="M210.44 173.01C226.556 173.01 239.62 159.946 239.62 143.83C239.62 127.714 226.556 114.65 210.44 114.65C194.324 114.65 181.26 127.714 181.26 143.83C181.26 159.946 194.324 173.01 210.44 173.01Z" fill="url(#paint1_radial_383_620)" stroke="black" stroke-width="5" stroke-miterlimit="10"/>
<path d="M168.63 216.28C189.738 216.28 206.85 199.168 206.85 178.06C206.85 156.952 189.738 139.84 168.63 139.84C147.522 139.84 130.41 156.952 130.41 178.06C130.41 199.168 147.522 216.28 168.63 216.28Z" fill="url(#paint2_radial_383_620)" stroke="black" stroke-width="5" stroke-miterlimit="10"/>
<path d="M117.67 268.04C145.207 268.04 167.53 245.717 167.53 218.18C167.53 190.643 145.207 168.32 117.67 168.32C90.1331 168.32 67.81 190.643 67.81 218.18C67.81 245.717 90.1331 268.04 117.67 268.04Z" fill="url(#paint3_radial_383_620)" stroke="black" stroke-width="5" stroke-miterlimit="10"/>
<path d="M105.37 189.63C111.41 185.87 115.39 191.87 112.41 195.59C110.19 198.37 108.16 200.43 98.54 200.11" fill="#C20032"/>
<path d="M105.37 189.63C111.41 185.87 115.39 191.87 112.41 195.59C110.19 198.37 108.16 200.43 98.54 200.11" stroke="black" stroke-width="5" stroke-linecap="round" stroke-linejoin="round"/>
<path d="M136.08 243.3C90.02 248.52 91.77 198.11 105.37 189.64" stroke="black" stroke-width="5" stroke-linecap="round" stroke-linejoin="round"/>
<path d="M136.53 245.53C137.927 245.53 139.06 244.397 139.06 243C139.06 241.603 137.927 240.47 136.53 240.47C135.133 240.47 134 241.603 134 243C134 244.397 135.133 245.53 136.53 245.53Z" stroke="black" stroke-width="5" stroke-linecap="round" stroke-linejoin="round"/>
<path d="M142.34 217.29C150.11 219.45 153.22 228.02 148.3 234.88" stroke="black" stroke-width="5" stroke-linecap="round" stroke-linejoin="round"/>
<path d="M122.22 183C129.38 183.75 132.89 191.61 129.41 197.43" stroke="black" stroke-width="5" stroke-linecap="round" stroke-linejoin="round"/>
<path d="M188.94 182.05C197.75 176.91 192.38 167.55 185.23 173.77" stroke="black" stroke-width="5" stroke-linecap="round" stroke-linejoin="round"/>
<path d="M202.57 136.27C196.53 144.89 204.21 154.61 212.86 153.39" stroke="black" stroke-width="5" stroke-linecap="round" stroke-linejoin="round"/>
<path d="M211.29 135.22C213.389 135.22 215.09 133.519 215.09 131.42C215.09 129.321 213.389 127.62 211.29 127.62C209.191 127.62 207.49 129.321 207.49 131.42C207.49 133.519 209.191 135.22 211.29 135.22Z" fill="black"/>
<path d="M221.87 150.13C223.969 150.13 225.67 148.428 225.67 146.33C225.67 144.231 223.969 142.53 221.87 142.53C219.771 142.53 218.07 144.231 218.07 146.33C218.07 148.428 219.771 150.13 221.87 150.13Z" fill="black"/>
<path d="M64.77 322.38C98.8846 322.38 126.54 294.724 126.54 260.61C126.54 226.495 98.8846 198.84 64.77 198.84C30.6554 198.84 3 226.495 3 260.61C3 294.724 30.6554 322.38 64.77 322.38Z" fill="url(#paint4_radial_383_620)" stroke="black" stroke-width="5" stroke-miterlimit="10"/>
<path d="M30.69 231.22C59.19 238.01 84.94 254.75 108.8 278.33C108.8 278.33 92.03 301.7 69.52 301.36C50.9 301.08 28.97 286.83 25.47 269.09C21.97 251.35 30.69 231.23 30.69 231.23V231.22Z" fill="url(#paint5_radial_383_620)" stroke="black" stroke-width="5" stroke-linecap="round" stroke-linejoin="round"/>
<path d="M114.02 245.31C108.93 243.5 103.15 242.32 96.88 241.58C101.35 246.7 104.93 251.82 107.61 256.93" stroke="black" stroke-width="5" stroke-linecap="round" stroke-linejoin="round"/>
<path d="M99.82 269.86C96.87 272.52 92.37 273.88 86.96 272.66C72.61 269.43 52 255.67 46.19 248.06C42.84 243.68 41.72 239.87 42.37 234.61C62.84 241.6 81.87 253.77 99.82 269.86Z" fill="white" stroke="black" stroke-width="3" stroke-linecap="round" stroke-linejoin="round"/>
<path d="M75.27 300.93C73.4 301.24 71.48 301.39 69.52 301.36C50.9 301.07 28.97 286.82 25.47 269.08C50.07 268.03 72.43 286.53 75.27 300.93Z" fill="white" stroke="black" stroke-width="3" stroke-linecap="round" stroke-linejoin="round"/>
<path d="M47.84 212.09C62.06 208.12 79.67 210.3 88.53 217.13" stroke="white" stroke-width="5" stroke-linecap="round" stroke-linejoin="round"/>
<path d="M34.27 218.93C35.73 217.69 37.35 216.59 39.09 215.62" stroke="white" stroke-width="5" stroke-linecap="round" stroke-linejoin="round"/>
<path d="M103.94 178.81C115.48 175.59 129.77 177.36 136.95 182.9" stroke="white" stroke-width="5" stroke-linecap="round" stroke-linejoin="round"/>
<path d="M92.92 184.36C94.1 183.35 95.42 182.46 96.83 181.67" stroke="white" stroke-width="5" stroke-linecap="round" stroke-linejoin="round"/>
<path d="M158.06 149.67C166.94 147.19 177.93 148.55 183.46 152.82" stroke="white" stroke-width="4" stroke-linecap="round" stroke-linejoin="round"/>
<path d="M149.59 153.94C150.5 153.17 151.51 152.48 152.6 151.87" stroke="white" stroke-width="4" stroke-linecap="round" stroke-linejoin="round"/>
<path d="M202.92 123.32C209.71 121.42 218.11 122.46 222.33 125.73" stroke="white" stroke-width="3" stroke-linecap="round" stroke-linejoin="round"/>
<path d="M196.45 126.58C197.15 125.99 197.92 125.46 198.75 125" stroke="white" stroke-width="3" stroke-linecap="round" stroke-linejoin="round"/>
<path d="M52.75 210.28C56.99 213.51 60.65 217.16 63.63 221.31C56.89 221.33 50.5 222.27 44.4 223.99" stroke="black" stroke-width="5" stroke-linecap="round" stroke-linejoin="round"/>
<path d="M30.69 231.22C59.19 238.01 84.94 254.75 108.8 278.33C108.8 278.33 92.03 301.7 69.52 301.36C50.9 301.08 28.97 286.83 25.47 269.09C21.97 251.35 30.69 231.23 30.69 231.23V231.22Z" stroke="black" stroke-width="5" stroke-linecap="round" stroke-linejoin="round"/>
<path d="M170.57 155.73C178.49 149.31 185.34 157.65 177 162.13" stroke="black" stroke-width="5" stroke-linecap="round" stroke-linejoin="round"/>
<path d="M159.78 152.07C162.84 173.23 173.04 187.6 188.85 196.64C188.85 196.64 178.49 201.87 171.71 197.43C164.93 192.99 152.03 175.92 152.03 167.42C152.03 158.92 159.78 152.07 159.78 152.07Z" fill="url(#paint6_radial_383_620)" stroke="black" stroke-width="5" stroke-linecap="round" stroke-linejoin="round"/>
<path d="M172.52 182.05C171.29 182.67 168.22 184.44 167.57 184.34C165.03 183.97 161.96 178.27 161.7 176.6C161.61 176.03 164.92 173.39 166.34 172.3C169.31 177.96 168.74 177.27 172.52 182.06V182.05Z" fill="white" stroke="black" stroke-width="3" stroke-linecap="round" stroke-linejoin="round"/>
<defs>
<linearGradient id="paint0_linear_383_620" x1="221.2" y1="67.1" x2="376.01" y2="67.1" gradientUnits="userSpaceOnUse">
<stop stop-color="#6C3428"/>
<stop offset="0.1" stop-color="#91492E"/>
<stop offset="0.19" stop-color="#B05B33"/>
<stop offset="0.3" stop-color="#C96937"/>
<stop offset="0.41" stop-color="#DC753A"/>
<stop offset="0.54" stop-color="#EA7D3C"/>
<stop offset="0.7" stop-color="#F2813D"/>
<stop offset="1" stop-color="#ED7C40"/>
</linearGradient>
<radialGradient id="paint1_radial_383_620" cx="0" cy="0" r="1" gradientUnits="userSpaceOnUse" gradientTransform="translate(213.15 135.22) scale(32 32)">
<stop stop-color="#FFB726"/>
<stop offset="0.33" stop-color="#FCB525"/>
<stop offset="0.52" stop-color="#F4AF24"/>
<stop offset="0.67" stop-color="#E6A421"/>
<stop offset="0.81" stop-color="#D2961D"/>
<stop offset="0.93" stop-color="#B88319"/>
<stop offset="1" stop-color="#A77716"/>
</radialGradient>
<radialGradient id="paint2_radial_383_620" cx="0" cy="0" r="1" gradientUnits="userSpaceOnUse" gradientTransform="translate(173.5 160.86) scale(48.12)">
<stop stop-color="#E86E1C"/>
<stop offset="0.36" stop-color="#E56C1B"/>
<stop offset="0.54" stop-color="#DD691A"/>
<stop offset="0.68" stop-color="#D06319"/>
<stop offset="0.81" stop-color="#BD5A16"/>
<stop offset="0.91" stop-color="#A54E14"/>
<stop offset="1" stop-color="#8C4311"/>
</radialGradient>
<radialGradient id="paint3_radial_383_620" cx="0" cy="0" r="1" gradientUnits="userSpaceOnUse" gradientTransform="translate(129.67 202.6) scale(68.88)">
<stop stop-color="#E51D66"/>
<stop offset="0.32" stop-color="#E21C64"/>
<stop offset="0.49" stop-color="#DA1B61"/>
<stop offset="0.62" stop-color="#CD195B"/>
<stop offset="0.73" stop-color="#BA1752"/>
<stop offset="0.82" stop-color="#A21347"/>
<stop offset="0.91" stop-color="#840F39"/>
<stop offset="0.99" stop-color="#610A29"/>
<stop offset="1" stop-color="#5F0A28"/>
</radialGradient>
<radialGradient id="paint4_radial_383_620" cx="0" cy="0" r="1" gradientUnits="userSpaceOnUse" gradientTransform="translate(73.02 233.01) scale(88.1 88.1)">
<stop stop-color="#FD9BEB"/>
<stop offset="0.33" stop-color="#FA99E8"/>
<stop offset="0.49" stop-color="#F294E1"/>
<stop offset="0.62" stop-color="#E58BD5"/>
<stop offset="0.73" stop-color="#D27FC3"/>
<stop offset="0.83" stop-color="#BA6FAC"/>
<stop offset="0.92" stop-color="#9C5C90"/>
<stop offset="1" stop-color="#7C4772"/>
</radialGradient>
<radialGradient id="paint5_radial_383_620" cx="0" cy="0" r="1" gradientUnits="userSpaceOnUse" gradientTransform="translate(66.72 266.29) scale(38.73 38.73)">
<stop stop-color="#E036C0"/>
<stop offset="0.29" stop-color="#DD35BD"/>
<stop offset="0.5" stop-color="#D332B5"/>
<stop offset="0.68" stop-color="#C42EA8"/>
<stop offset="0.84" stop-color="#AE2995"/>
<stop offset="1" stop-color="#92227D"/>
</radialGradient>
<radialGradient id="paint6_radial_383_620" cx="0" cy="0" r="1" gradientUnits="userSpaceOnUse" gradientTransform="translate(170.44 175.64) scale(21.15 21.15)">
<stop stop-color="#5F0D0D"/>
<stop offset="0.39" stop-color="#5C0C0C"/>
<stop offset="0.67" stop-color="#520B0B"/>
<stop offset="0.92" stop-color="#430909"/>
<stop offset="1" stop-color="#3C0909"/>
</radialGradient>
</defs>
</svg>
