<svg width="59" height="59" viewBox="0 0 59 59" fill="none" xmlns="http://www.w3.org/2000/svg">
<path d="M29.59 56.18C44.2753 56.18 56.18 44.2753 56.18 29.59C56.18 14.9047 44.2753 3 29.59 3C14.9047 3 3 14.9047 3 29.59C3 44.2753 14.9047 56.18 29.59 56.18Z" fill="url(#paint0_radial_383_692)" stroke="black" stroke-width="5" stroke-miterlimit="10"/>
<path d="M37.86 17.99C39.2904 17.99 40.45 16.7633 40.45 15.25C40.45 13.7367 39.2904 12.51 37.86 12.51C36.4296 12.51 35.27 13.7367 35.27 15.25C35.27 16.7633 36.4296 17.99 37.86 17.99Z" fill="#FF476C"/>
<path d="M47.61 23.2801C48.04 24.0201 48.65 25.8101 48.02 26.5501C47.6 27.0401 46.96 27.3701 46.31 27.4301C45.51 27.5101 44.92 26.9801 44.39 26.4401C43.61 25.6501 42.82 24.8601 42.15 23.9701C41.6 23.2301 40.63 22.0201 41.02 21.0401C41.31 20.3001 41.98 19.5301 42.74 19.4701C45.44 19.2501 47.11 22.4401 47.61 23.2801Z" fill="#FF476C"/>
<defs>
<radialGradient id="paint0_radial_383_692" cx="0" cy="0" r="1" gradientUnits="userSpaceOnUse" gradientTransform="translate(33.3745 21.7353) rotate(120.92) scale(33.36 29.6904)">
<stop stop-color="#E11960"/>
<stop offset="1" stop-color="#A11244"/>
</radialGradient>
</defs>
</svg>
